Format                                   : Matroska
Format version                           : Version 2
File size                                : 1.26 GiB
Duration                                 : 2h 22mn
Overall bit rate                         : 1 265 Kbps
Movie name                               : The Hunger Games [2012].720p.BRRip.x264.[Dual Audio].6Ch.[Hindi+English].by K@rtik [ExD Exclusive]
Format/Info                              : Advanced Video Codec
Format profile                           : High@L3.1
Format settings, CABAC                   : Yes
Format settings, ReFrames                : 4 frames
Muxing mode                              : Header stripping
Codec ID                                 : V_MPEG4/ISO/AVC
Duration                                 : 2h 22mn
Bit rate                                 : 592 Kbps
Width                                    : 1 280 pixels
Height                                   : 544 pixels
Display aspect ratio                     : 2.35:1
Frame rate                               : 23.976 fps
Codec ID                                 : A_AC3
Duration                                 : 2h 22mn
Bit rate mode                            : Constant
Bit rate                                 : 448 Kbps
Channel(s)                               : 6 channels
Channel positions                        : Front: L C R, Side: L R, LFE
Sampling rate                            : 48.0 KHz
Stream size                              : 457 MiB (35%)
Title                                    : K@rtik
Language                                 : Hindi
Codec ID                                 : A_AC3
Duration                                 : 2h 22mn
Bit rate mode                            : Constant
Bit rate                                 : 224 Kbps
Channel(s)                               : 6 channels
Channel positions                        : Front: L C R, Side: L R, LFE
Sampling rate                            : 48.0 KHz
Stream size                              : 228 MiB (18%)
Title                                    : K@rtik
Language                                 : English 
http://img706.imageshack.us/img706/6396/coverwyvj.jpg 
http://img824.imageshack.us/img824/4664/83349149.png 
http://img502.imageshack.us/img502/193/32269248.png 
http://img443.imageshack.us/img443/8535/73145681.png 
http://img201.imageshack.us/img201/2341/65181721.png 
http://img513.imageshack.us/img513/2999/54318695.png 
http://img836.imageshack.us/img836/6226/70193696.png 
http://img826.imageshack.us/img826/4530/92803704.png 
http://img18.imageshack.us/img18/5083/24828747.png 
http://img191.imageshack.us/img191/7345/48770585.png 
http://img515.imageshack.us/img515/5761/72746704.png 
http://img26.imageshack.us/img26/2586/73405655.png


